<?xml version="1.0" encoding="UTF-8"?>
<svg id="Layer_1" xmlns="http://www.w3.org/2000/svg" version="1.1" viewBox="0 0 2902.52 2902.53">
  <!-- Generator: Adobe Illustrator 30.4.0, SVG Export Plug-In . SVG Version: 2.1.4 Build 226)  -->
  <defs>
    <style>
      .st0 {
        fill: #fff;
      }

      .st1 {
        fill: #39aa9b;
      }

      .st2 {
        fill: #f1f2f2;
      }

      .st3 {
        fill: #ed1c24;
      }

      .st4 {
        fill: #00a7e8;
      }
    </style>
  </defs>
  <path class="st1" d="M2716.4,2162.67c118.44-210.22,186.12-452.99,186.12-711.4C2902.52,649.88,2252.65,0,1451.26,0S0,649.88,0,1451.26s649.62,1451.26,1451.26,1451.26c290.97,0,562.2-85.88,789.34-233.55l578.35,138.69c37.43,8.98,70.76-25.64,60.25-62.81l-162.79-582.2ZM797.03,1965.52c-50.51,0-91.27-41.01-91.27-91.26v-845.74c0-50.5,40.76-91.27,91.27-91.27h1154.65c32.3-112.55,136.13-195.09,259.18-195.09,148.69,0,269.18,120.49,269.18,269.18s-120.49,269.43-269.18,269.43c-4.61,0-9.49,0-14.1-.25v593.73c0,50.25-41.01,91.26-91.26,91.26H797.03Z"/>
  <path class="st4" d="M2480.04,1011.35c0,148.94-120.49,269.43-269.18,269.43-4.61,0-9.49,0-14.1-.25v593.73c0,50.25-41.01,91.26-91.26,91.26H797.03c-50.51,0-91.27-41.01-91.27-91.26v-845.74c0-50.5,40.76-91.27,91.27-91.27h1154.65c32.3-112.55,136.13-195.09,259.18-195.09,148.69,0,269.18,120.49,269.18,269.18Z"/>
  <g>
    <path class="st2" d="M2196.76,1028.52v845.74c0,50.25-41.01,91.26-91.26,91.26H797.03c-50.51,0-91.27-41.01-91.27-91.26v-845.74c0-50.5,40.76-91.27,91.27-91.27h1308.47c43.58,0,80.24,30.76,89.21,71.78,1.28,6.41,2.05,12.82,2.05,19.48Z"/>
    <path class="st1" d="M2070.03,1073.17l-433.82,378.81,436.57,380.99c7.23,6.31,11.38,15.43,11.38,25.03h0c0,18.35-14.87,33.22-33.22,33.22h-6.99c-8.03,0-15.8-2.91-21.85-8.2l-439.87-384.03-44.62,38.74c-24.59,21.55-55.5,32.43-86.41,32.43s-61.82-10.88-86.41-32.43l-44.62-38.74-439.87,384.03c-6.05,5.28-13.81,8.2-21.85,8.2h-7c-18.35,0-33.22-14.87-33.22-33.22h0c0-9.59,4.15-18.72,11.38-25.03l436.57-380.99-434.95-379.79c-7.07-6.17-11.3-14.97-11.71-24.34h0c-.74-17.03,11.14-32.03,27.89-35.2l3.09-.58c10.34-1.96,21.01.94,28.94,7.87l531.92,464.48c22.64,19.81,57.03,19.81,79.66,0l529.54-462.41c7.09-6.2,16.47-9.12,25.83-8.07l5.31.6c18.06,2.03,31.23,18.07,29.7,36.19h0c-.73,8.68-4.81,16.73-11.37,22.45Z"/>
  </g>
  <g>
    <path class="st3" d="M2480.04,1011.35c0,148.94-120.49,269.43-269.18,269.43-4.61,0-9.49,0-14.1-.25-91.52-4.88-171.25-55.38-216.11-129.21-12.82-21.02-22.82-44.1-29.74-68.45-6.16-22.81-9.49-46.66-9.49-71.52s3.59-50.51,10.26-74.09c32.3-112.55,136.13-195.09,259.18-195.09,148.69,0,269.18,120.49,269.18,269.18Z"/>
    <path class="st0" d="M2138.07,1136.05v-31.67h56.72v-173.67h-45.76v-24.25c11.72-2.35,22.03-5.09,30.9-8.22,8.85-3.12,16.94-6.92,24.25-11.34h28.93v217.48h50.48v31.67h-145.52Z"/>
  </g>
</svg>