<svg xmlns="http://www.w3.org/2000/svg" id="Layer_1" data-name="Layer 1" viewBox="0 0 360 203.64"><defs><style>.cls-1{fill:#fff}</style></defs><path d="M0 203.32v-19.26h10.6v1.82H2.08v6.52h7.55v1.82H2.08v9.11H0ZM17.93 203.32l8.17-19.26h2.08l8.17 19.26h-2.26l-2.53-5.98h-8.84l-2.53 5.98zm9.21-16.4-3.65 8.6h7.28zM54.83 185.58c-1.08 0-2.12.21-3.11.61-.99.41-1.87 1-2.63 1.76s-1.35 1.64-1.76 2.64c-.41.99-.62 2.03-.62 3.12s.21 2.12.62 3.11 1 1.87 1.76 2.63a8.04 8.04 0 0 0 5.74 2.37c1.39 0 2.68-.33 3.89-.98s2.17-1.56 2.91-2.71h2.36c-.83 1.7-2.06 3.04-3.7 4.03-1.63.99-3.45 1.48-5.46 1.48q-2.085 0-3.96-.75a9.89 9.89 0 0 1-5.47-5.36c-.51-1.21-.76-2.49-.76-3.83s.25-2.63.76-3.84c.5-1.21 1.23-2.28 2.17-3.21.95-.93 2.05-1.65 3.3-2.14 1.25-.5 2.58-.75 3.98-.75 2.01 0 3.83.49 5.46 1.48s2.87 2.33 3.7 4.03h-2.36c-.74-1.15-1.71-2.06-2.91-2.71s-2.5-.98-3.89-.98zM73.36 203.32v-19.26h2.08v19.26zM85.97 203.32v-19.26h2.08v17.44h7.91v1.82h-10ZM104.79 203.32v-19.26h2.08v19.26zM120.03 203.32v-17.44h-4.24v-1.82h10.57v1.82h-4.24v17.44zM140.03 203.32v-7.8l-6.4-11.46h2.4l5.04 9.03 5.04-9.03h2.4l-6.4 11.46v7.8zM179.34 189.2c0-1.11-.31-1.99-.92-2.64s-1.43-.98-2.43-.98-1.74.31-2.39.94-.97 1.41-.97 2.36c0 .86.24 1.58.71 2.16s1.15.99 2.02 1.21l1.84.47c1.44.37 2.55 1.04 3.32 1.99.78.96 1.16 2.14 1.16 3.54 0 1.51-.55 2.78-1.65 3.83q-1.65 1.56-4.05 1.56c-2.4 0-2.96-.54-4.06-1.64-1.1-1.09-1.64-2.44-1.64-4.05v-.34h2.08v.34c0 1.15.34 2.08 1.02 2.8s1.55 1.07 2.6 1.07 1.92-.33 2.6-1c.68-.66 1.02-1.52 1.02-2.57 0-.87-.25-1.62-.76-2.24s-1.21-1.04-2.11-1.26l-1.79-.44c-1.4-.35-2.48-.99-3.24-1.93-.77-.94-1.15-2.1-1.15-3.49s.53-2.6 1.6-3.61 2.35-1.51 3.84-1.51 2.82.52 3.87 1.57 1.57 2.34 1.57 3.87v.52h-2.08v-.52h-.01ZM190.32 193.7c0-1.34.25-2.63.76-3.84.5-1.21 1.23-2.28 2.17-3.21.95-.93 2.05-1.65 3.3-2.14 1.25-.5 2.58-.75 3.98-.75s2.72.25 3.98.75c1.25.5 2.35 1.21 3.3 2.14.94.93 1.66 2 2.17 3.21.5 1.21.76 2.49.76 3.84s-.25 2.61-.76 3.83c-1.03 2.45-3 4.38-5.47 5.36q-1.875.75-3.96.75c-2.09 0-2.71-.25-3.96-.75a9.89 9.89 0 0 1-5.47-5.36 9.7 9.7 0 0 1-.76-3.83zm10.2-8.12c-1.08 0-2.12.21-3.11.61-.99.41-1.87 1-2.63 1.76s-1.35 1.64-1.76 2.64c-.41.99-.62 2.03-.62 3.12s.21 2.12.62 3.11 1 1.87 1.76 2.63a8.04 8.04 0 0 0 5.74 2.37c1.08 0 2.12-.2 3.11-.61s1.87-1 2.63-1.77c.76-.76 1.35-1.64 1.76-2.63s.62-2.02.62-3.1-.21-2.12-.62-3.11-1-1.87-1.76-2.63a8 8 0 0 0-2.63-1.77c-.99-.41-2.03-.61-3.11-.61ZM220.47 203.32v-19.26h2.08v17.44h7.91v1.82h-10ZM241.34 184.06v12.68c0 1.54.42 2.78 1.25 3.7s1.94 1.38 3.31 1.38 2.46-.46 3.3-1.39c.83-.93 1.25-2.16 1.25-3.69v-12.68h2.08v12.68c0 1.99-.63 3.64-1.89 4.94-1.26 1.31-2.84 1.96-4.75 1.96s-3.5-.65-4.76-1.96c-1.26-1.3-1.89-2.95-1.89-4.94v-12.68zM265.69 203.32v-17.44h-4.24v-1.82h10.57v1.82h-4.24v17.44zM280.94 203.32v-19.26h2.08v19.26zM292.77 193.7c0-1.34.25-2.63.76-3.84.5-1.21 1.23-2.28 2.17-3.21.95-.93 2.05-1.65 3.3-2.14 1.25-.5 2.58-.75 3.98-.75s2.72.25 3.98.75c1.25.5 2.35 1.21 3.3 2.14.94.93 1.66 2 2.17 3.21.5 1.21.76 2.49.76 3.84s-.25 2.61-.76 3.83c-1.03 2.45-3 4.38-5.47 5.36q-1.875.75-3.96.75c-2.08 0-2.71-.25-3.96-.75a9.89 9.89 0 0 1-5.47-5.36 9.7 9.7 0 0 1-.76-3.83zm10.2-8.12c-1.08 0-2.12.21-3.11.61-.99.41-1.87 1-2.63 1.76s-1.35 1.64-1.76 2.64c-.41.99-.62 2.03-.62 3.12s.21 2.12.62 3.11 1 1.87 1.76 2.63a8.04 8.04 0 0 0 5.74 2.37c1.08 0 2.12-.2 3.11-.61s1.87-1 2.63-1.77c.76-.76 1.35-1.64 1.76-2.63s.62-2.02.62-3.1-.21-2.12-.62-3.11-1-1.87-1.76-2.63a8 8 0 0 0-2.63-1.77c-.99-.41-2.03-.61-3.11-.61ZM322.92 203.32v-19.26h3.13l10.3 17.05v-17.05h2.08v19.26h-3.12l-10.3-17.05v17.05zM356.91 189.2c0-1.11-.31-1.99-.92-2.64s-1.43-.98-2.43-.98-1.74.31-2.39.94c-.64.63-.97 1.41-.97 2.36 0 .86.24 1.58.71 2.16s1.15.99 2.02 1.21l1.84.47c1.44.37 2.55 1.04 3.32 1.99.78.96 1.16 2.14 1.16 3.54 0 1.51-.55 2.78-1.65 3.83q-1.65 1.56-4.05 1.56c-2.4 0-2.96-.54-4.06-1.64-1.1-1.09-1.64-2.44-1.64-4.05v-.34h2.08v.34c0 1.15.34 2.08 1.02 2.8s1.55 1.07 2.6 1.07 1.92-.33 2.6-1c.68-.66 1.02-1.52 1.02-2.57 0-.87-.25-1.62-.76-2.24s-1.21-1.04-2.11-1.26l-1.79-.44c-1.4-.35-2.48-.99-3.24-1.93-.77-.94-1.15-2.1-1.15-3.49s.53-2.6 1.6-3.61 2.35-1.51 3.84-1.51 2.82.52 3.87 1.57 1.57 2.34 1.57 3.87v.52h-2.08v-.52Z" class="cls-1" data-color="1"/><path d="M.74 115.36c0-26.72 15.97-40.57 39.75-40.57s39.75 13.85 39.75 40.57v42.03H69.32v-42.03c0-19.87-11.41-30.46-28.84-30.46s-28.84 10.59-28.84 30.46v42.03H.74zM92.96 117.15c0-24.43 17.92-42.36 43.34-42.36s43.34 17.92 43.34 42.36-17.92 42.36-43.34 42.36-43.34-17.92-43.34-42.36m75.59 0c0-18.57-13.04-32.26-32.26-32.26s-32.26 13.68-32.26 32.26 13.03 32.26 32.26 32.26 32.26-13.68 32.26-32.26M183.88 76.91h12.22l30.63 70.05 30.63-70.05h11.89l-36.17 80.48h-13.03zM273.49 117.64c0-25.09 17.92-42.85 43.34-42.85S360 92.22 360 117.64v39.75h-10.1v-19.87c-5.7 14.34-19.06 21.99-34.7 21.99-22.64 0-41.71-16.13-41.71-41.87m75.6-.49c0-18.57-13.04-32.26-32.26-32.26s-32.26 13.68-32.26 32.26 13.03 32.26 32.26 32.26 32.26-13.68 32.26-32.26" class="cls-1" data-color="2"/><path d="M235.73 42.36 226.56 0l-9.17 42.36-42.36 9.17 42.36 9.17 9.17 42.36 9.17-42.36 42.37-9.17z" data-color="3" style="fill:#fba919"/></svg>